PathFileType	4	(X/Y/Z)	 s09c0001.trc
DataRate	CameraRate	NumFrames	NumMarkers	Units	OrigDataRate	OrigDataStartFrame	OrigNumFrames
200	200	6	49	mm	200	1	2000
Frame#	Time	racr			lacr			c7			jug			rlel			rdr			llel			ldr			s2			lic			ric			lasi			rasi			rpsi			lpsi			rgt			lgt			rth1			rth2			rth3			rth4			rlfc			rmfc			rsh1			rsh2			rsh3			rsh4			rlmal			rmmal			rcal			rtoe			rmt5			rmt1			lth1			lth2			lth4			lth3			llfc			lmfc			llmal			lmmal			lcal			lmt1			lmt5			lsh1			lsh2			lsh3			lsh4			ltoe			
		X1	Y1	Z1	X2	Y2	Z2	X3	Y3	Z3	X4	Y4	Z4	X5	Y5	Z5	X6	Y6	Z6	X7	Y7	Z7	X8	Y8	Z8	X9	Y9	Z9	X10	Y10	Z10	X11	Y11	Z11	X12	Y12	Z12	X13	Y13	Z13	X14	Y14	Z14	X15	Y15	Z15	X16	Y16	Z16	X17	Y17	Z17	X18	Y18	Z18	X19	Y19	Z19	X20	Y20	Z20	X21	Y21	Z21	X22	Y22	Z22	X23	Y23	Z23	X24	Y24	Z24	X25	Y25	Z25	X26	Y26	Z26	X27	Y27	Z27	X28	Y28	Z28	X29	Y29	Z29	X30	Y30	Z30	X31	Y31	Z31	X32	Y32	Z32	X33	Y33	Z33	X34	Y34	Z34	X35	Y35	Z35	X36	Y36	Z36	X37	Y37	Z37	X38	Y38	Z38	X39	Y39	Z39	X40	Y40	Z40	X41	Y41	Z41	X42	Y42	Z42	X43	Y43	Z43	X44	Y44	Z44	X45	Y45	Z45	X46	Y46	Z46	X47	Y47	Z47	X48	Y48	Z48	X49	Y49	Z49	
1	0.0050	287.721281	1353.356004	382.555304	290.133702	1336.053380	-10.457801	236.661354	1403.400971	182.574051	359.904871	1350.516618	182.351743	299.186397	1093.046198	448.934988	360.135698	878.077790	578.980555	275.578826	1051.887837	-45.547562	398.408726	895.430848	-193.117723	221.697329	943.171028	187.651110	355.374431	989.942994	49.961478	342.968811	1002.011973	339.181520	412.298499	954.120497	80.667658	402.918725	965.107419	320.224051	227.807001	978.977975	245.269303	228.452704	975.335800	135.031684	328.157116	846.305971	386.918493	333.068417	836.463706	11.899358	350.781515	715.692172	382.578895	365.957121	630.302112	368.995881	333.639754	547.740603	359.408855	396.773813	628.634345	349.266812	319.953333	450.555500	335.363572	302.580232	430.775797	237.737517	278.947545	360.918699	368.585025	303.039773	273.537226	360.072059	279.618117	189.110837	361.445429	327.403626	276.185554	329.426077	276.932710	86.496959	360.284176	286.392854	93.264506	284.117089	219.182078	31.841721	318.117916	472.051328	85.921278	354.221795	388.229531	49.050896	406.973693	401.265820	38.642896	297.607904	343.073963	710.369018	10.348881	357.637639	628.650786	26.947255	392.901962	627.213268	41.368853	329.038316	543.668838	35.473801	310.504507	448.635217	48.275062	319.658163	428.155321	140.250563	268.817072	84.817973	21.813688	291.515703	95.822481	92.518950	218.894430	26.578923	67.962051	406.426545	43.606537	87.168468	379.943174	34.897776	-18.289262	279.654653	355.033594	18.011102	297.097235	269.949607	21.639962	275.226017	198.172313	14.865347	324.116849	270.287478	50.852459	472.661659	78.722520	36.416280	
2	0.0100	287.720864	1353.372763	382.553080	290.131522	1336.068262	-10.456088	236.613002	1403.415119	182.617398	359.910157	1350.520658	182.364958	299.184401	1093.060878	448.960806	360.154639	878.091181	579.022323	275.609256	1051.893980	-45.551560	398.450689	895.444769	-193.115044	221.693662	943.146022	187.675625	355.376128	989.935745	49.992311	342.974624	1002.010490	339.172383	412.321828	954.120731	80.690772	402.913693	965.113289	320.236504	227.813755	978.980958	245.282178	228.467491	975.335483	135.047572	328.155058	846.316741	386.943714	333.051454	836.476641	11.895074	350.792781	715.681497	382.571475	365.971268	630.307119	369.009362	333.664326	547.726985	359.407769	396.796658	628.641196	349.285485	319.946750	450.555780	335.368861	302.579603	430.778616	237.738744	278.947641	360.928753	368.594054	303.057081	273.548777	360.081481	279.614539	189.115588	361.458260	327.410125	276.198344	329.441644	276.913920	86.490200	360.284556	286.394518	93.250710	284.125422	219.168846	31.831596	318.117415	472.057917	85.920309	354.208244	388.246389	49.034472	406.973412	401.291766	38.656167	297.626444	343.079079	710.365484	10.358966	357.646084	628.644215	26.981424	392.892275	627.205263	41.365479	329.051940	543.676448	35.506416	310.510599	448.644157	48.272168	319.656882	428.159413	140.263174	268.822630	84.789909	21.817224	291.517088	95.823008	92.519811	218.912984	26.559106	67.957594	406.409292	43.602523	87.173604	379.916229	34.886437	-18.285053	279.648742	355.021179	18.020990	297.113215	269.919171	21.629119	275.258970	198.142772	14.757850	324.083017	270.218299	50.883620	472.653643	78.702272	36.414064	
3	0.0150	287.731919	1353.387888	382.555893	290.129069	1336.067477	-10.450146	236.631904	1403.419102	182.575086	359.908026	1350.533486	182.339517	299.205532	1093.071133	448.971807	360.179117	878.119453	579.063582	275.610773	1051.903196	-45.565325	398.481333	895.460815	-193.131702	221.696794	943.142669	187.673285	355.393572	989.964115	49.994192	342.995025	1002.014627	339.175535	412.327388	954.110590	80.715119	402.914971	965.109128	320.234250	227.823515	978.975709	245.287995	228.485668	975.344725	135.052555	328.155058	846.316741	386.943714	333.079716	836.453211	11.895605	350.769944	715.686763	382.586722	365.973705	630.302046	369.010043	333.658087	547.731099	359.428055	396.806403	628.627059	349.277334	319.961970	450.558482	335.372333	302.608725	430.780091	237.742901	278.958466	360.920991	368.583756	303.047449	273.536945	360.089343	279.615814	189.116090	361.476222	327.409184	276.197716	329.454932	276.934691	86.498012	360.284735	286.408640	93.249199	284.136451	219.166619	31.852841	318.132338	472.063351	85.928740	354.225406	388.257120	49.042296	406.977081	401.287399	38.648038	297.615789	343.096993	710.367937	10.368154	357.648452	628.645240	26.985977	392.906420	627.212770	41.386703	329.038636	543.685074	35.519547	310.526829	448.628970	48.298644	319.648925	428.141533	140.263580	268.794195	84.778417	21.829971	291.514928	95.809663	92.520437	218.895646	26.568424	67.970483	406.426396	43.611165	87.178577	379.930975	34.817127	-18.284965	279.659674	355.031806	18.016087	297.098230	269.927641	21.636930	275.237137	198.148532	14.822249	324.117693	270.218464	50.904583	472.637419	78.717095	36.428257	
4	0.0200	287.749732	1353.395524	382.564531	290.106018	1336.082848	-10.455605	236.588478	1403.415253	182.609243	359.912106	1350.533803	182.351857	299.209474	1093.101175	448.995953	360.175535	878.153462	579.106114	275.667954	1052.285491	-45.319890	398.510628	895.485611	-193.132580	224.369096	941.869623	185.575191	354.874384	990.278456	49.649418	343.669526	1001.970592	338.976809	412.466796	953.979340	80.696083	402.937224	965.120522	320.246214	227.814766	978.986314	245.305805	228.467809	975.346927	135.075779	328.168893	846.322154	386.949747	333.064173	836.479772	11.914376	350.784504	715.677472	382.590698	365.973355	630.303135	369.010881	333.666121	547.728751	359.426453	396.587399	628.657283	349.194742	319.947731	450.551772	335.391552	302.601830	430.791255	237.740000	278.962358	360.926381	368.596681	302.614211	273.506418	359.881552	279.604336	189.117444	361.462590	328.060512	276.238251	329.684365	276.790657	86.532390	360.332880	286.396216	93.248303	284.127644	219.156008	31.836577	318.126480	471.987702	85.947701	354.317905	388.243361	49.050048	406.986620	401.292081	38.657350	297.623282	343.087872	710.368784	10.372070	357.653286	628.641650	26.989895	393.333039	626.606492	41.622338	329.090791	543.444697	35.394671	310.819316	448.592512	48.119997	319.656613	428.145241	140.267793	268.817563	84.795772	21.814896	291.520543	95.828096	92.513184	218.909248	26.561028	67.959666	406.412164	43.604802	87.177599	381.483444	33.832813	-18.592443	279.660041	355.021933	18.039214	297.106382	269.943624	21.640852	275.256990	198.128195	14.663617	324.057085	270.088946	50.986998	472.675076	78.708984	36.423708	
5	0.0250	288.007519	1353.979371	383.445117	289.994772	1336.413008	-9.899270	236.299071	1403.616545	182.907999	359.525088	1350.695479	182.976589	299.203500	1093.200636	448.874354	360.837779	877.973616	579.379527	275.787645	1052.323534	-45.346916	398.784710	895.688942	-192.985526	224.443138	941.914108	185.594458	355.394989	990.971188	49.710201	344.772001	1001.214860	338.969967	412.581007	953.905312	81.160498	403.035867	964.894885	320.511727	227.818990	978.932180	245.323267	228.140043	975.331686	134.833810	328.008205	846.565268	387.092711	332.625026	837.330226	11.798383	350.676245	715.875192	382.668400	365.958903	630.471609	369.101199	333.571349	547.937943	359.539604	396.542632	628.870277	349.301067	319.892466	450.793573	335.509301	302.887506	430.346328	237.746278	278.885499	361.070413	368.637115	302.624480	273.739653	359.944091	279.580448	189.228834	361.550866	328.186006	276.545266	329.815910	276.766043	86.598076	360.330215	286.272049	93.358701	284.104139	219.151129	31.905855	318.136708	471.969065	86.129622	354.463110	388.208176	49.801511	407.529840	401.699654	38.057482	297.472141	342.638325	710.302137	10.842573	357.382461	629.122283	26.689215	392.766581	626.913490	41.087113	328.744769	543.941431	35.599195	310.655137	449.173395	48.045265	319.599032	427.723746	140.000871	268.818269	85.002146	21.902956	291.361348	96.025221	92.599001	218.775338	26.672839	68.084691	406.358472	43.774221	87.255144	381.449024	33.819998	-18.444289	279.562663	355.319499	18.128356	296.973119	270.292613	21.709973	274.985723	198.388170	14.784411	324.111320	270.101954	50.936341	472.661918	78.977684	36.561463	
6	0.0300	287.543095	1353.852655	382.513301	289.945267	1336.340914	-10.414960	236.491773	1403.469462	182.663257	359.738976	1350.871219	182.118709	299.213019	1093.215054	448.886005	360.175193	878.505787	579.165912	275.737908	1052.259011	-45.352268	398.624628	895.538992	-193.170907	224.444763	941.932621	185.615337	355.097369	990.697341	49.484273	343.193162	1002.309603	338.937256	412.232275	954.370734	80.611275	402.731971	965.468347	320.294741	227.820373	978.930851	245.335951	228.397648	975.277546	134.930906	328.008112	846.583316	387.108251	332.787765	836.921231	11.648164	350.668150	715.888067	382.672228	365.965533	630.483891	369.100065	333.582713	547.947651	359.541321	396.532931	628.885901	349.310297	319.896321	450.788347	335.518959	302.680450	430.920866	237.729145	278.868446	361.087991	368.633779	302.813280	273.924577	360.076280	279.568720	189.245026	361.557533	328.226422	276.594167	329.854722	276.772462	86.601960	360.349817	286.284376	93.348118	284.100641	219.139439	31.889340	318.129007	471.937190	86.082487	354.447454	388.179591	49.229768	407.164645	401.200073	38.908433	297.430383	342.753280	710.604538	10.373747	357.426913	628.929669	26.785227	393.211449	626.839319	41.160280	328.882537	543.745666	35.502538	310.758901	448.967713	47.979015	319.561921	428.560994	140.534587	268.819640	84.997980	21.907999	291.333756	96.029886	92.603881	218.770855	26.668148	68.085249	406.363328	43.774885	87.251771	381.549812	33.719669	-18.431902	279.575571	355.217877	18.023915	297.038497	270.236426	21.701592	275.153783	198.316002	14.757334	324.059509	270.156384	51.011789	472.664203	79.027301	36.561492	
